<svg xmlns="http://www.w3.org/2000/svg" viewBox="0 0 64 64" fill="none">
  <defs>
    <linearGradient id="bg" x1="8" y1="8" x2="56" y2="56" gradientUnits="userSpaceOnUse">
      <stop offset="0" stop-color="#4F7CFF"/>
      <stop offset="1" stop-color="#6D5BFF"/>
    </linearGradient>
    <linearGradient id="gold" x1="18" y1="18" x2="46" y2="46" gradientUnits="userSpaceOnUse">
      <stop offset="0" stop-color="#FFB547"/>
      <stop offset="1" stop-color="#FFD27A"/>
    </linearGradient>
  </defs>
  <rect x="3" y="3" width="58" height="58" rx="16" fill="url(#bg)"/>
  <path d="M20 32c0-6.627 5.373-12 12-12 3.65 0 7.02 1.645 9.25 4.23l-4.6 3.04A6.98 6.98 0 0 0 32 25c-3.866 0-7 3.134-7 7s3.134 7 7 7c2.99 0 5.55-1.877 6.55-4.52H32v-5h13.5c.18.99.27 2 .27 3 0 8.284-6.716 15-15 15s-15-6.716-15-15Z" fill="url(#gold)"/>
</svg>
